<svg xmlns="http://www.w3.org/2000/svg" viewBox="0 -0.5 55 41" shape-rendering="crispEdges">
<metadata>Made with Pixels to Svg https://codepen.io/shshaw/pen/XbxvNj</metadata>
<path stroke="#000000" d="M26 0h3M24 1h2M29 1h2M22 2h2M31 2h2M20 3h2M33 3h2M18 4h2M35 4h2M16 5h2M37 5h2M14 6h2M39 6h2M12 7h2M41 7h2M10 8h2M43 8h2M8 9h2M45 9h2M6 10h2M47 10h2M4 11h2M49 11h2M2 12h2M51 12h2M0 13h2M53 13h2M0 14h1M2 14h2M51 14h2M54 14h1M0 15h1M4 15h2M49 15h2M54 15h1M0 16h1M6 16h2M47 16h2M54 16h1M0 17h1M8 17h2M45 17h2M54 17h1M0 18h1M10 18h2M43 18h2M54 18h1M0 19h1M12 19h2M41 19h2M54 19h1M0 20h1M14 20h2M39 20h2M54 20h1M0 21h1M16 21h2M37 21h2M54 21h1M0 22h1M18 22h2M35 22h2M54 22h1M0 23h1M20 23h2M33 23h2M54 23h1M0 24h1M22 24h2M31 24h2M54 24h1M0 25h1M24 25h2M29 25h2M54 25h1M0 26h1M26 26h3M54 26h1M0 27h2M27 27h1M53 27h2M2 28h2M27 28h1M51 28h2M4 29h2M27 29h1M49 29h2M6 30h2M27 30h1M47 30h2M8 31h2M27 31h1M45 31h2M10 32h2M27 32h1M43 32h2M12 33h2M27 33h1M41 33h2M14 34h2M27 34h1M39 34h2M16 35h2M27 35h1M37 35h2M18 36h2M27 36h1M35 36h2M20 37h2M27 37h1M33 37h2M22 38h2M27 38h1M31 38h2M24 39h2M27 39h1M29 39h2M26 40h3" />
<path stroke="#b87f64" d="M26 1h3M24 2h7M22 3h11M20 4h15M18 5h19M16 6h23M14 7h27M12 8h31M10 9h35M8 10h39M6 11h43M4 12h47M2 13h51M4 14h47M6 15h43M8 16h39M10 17h35M12 18h31M14 19h27M16 20h23M18 21h19M20 22h15M22 23h11M24 24h7M26 25h3" />
<path stroke="#8f563b" d="M1 14h1M53 14h1M1 15h3M51 15h3M1 16h5M49 16h5M1 17h7M47 17h7M1 18h9M45 18h9M1 19h11M43 19h11M1 20h13M41 20h13M1 21h15M39 21h15M1 22h17M37 22h17M1 23h19M35 23h19M1 24h21M33 24h21M1 25h23M31 25h23M1 26h25M29 26h25M2 27h25M28 27h25M4 28h23M28 28h23M6 29h21M28 29h21M8 30h19M28 30h19M10 31h17M28 31h17M12 32h15M28 32h15M14 33h13M28 33h13M16 34h11M28 34h11M18 35h9M28 35h9M20 36h7M28 36h7M22 37h5M28 37h5M24 38h3M28 38h3M26 39h1M28 39h1" />
</svg>